<svg width="344" height="191" viewBox="0 0 344 191" fill="none" xmlns="http://www.w3.org/2000/svg">
<rect width="344" height="191" fill="#D60505"/>
<path fill-rule="evenodd" clip-rule="evenodd" d="M286.475 91.3384C287.45 90.2565 288.619 89.3959 289.912 88.8082C291.205 88.2204 292.595 87.9175 294 87.9175C295.404 87.9175 296.795 88.2204 298.088 88.8082C299.381 89.3959 300.55 90.2565 301.525 91.3384L302.625 92.56H313.437C318.798 92.56 323.166 97.1833 323.166 102.917V113.552H319V102.917C318.996 102.139 318.85 101.369 318.569 100.651C318.287 99.9338 317.877 99.2826 317.36 98.7349C316.844 98.1871 316.231 97.7536 315.558 97.4591C314.885 97.1646 314.164 97.0148 313.437 97.0184H301.737C301.457 97.0181 301.18 96.9573 300.922 96.8397C300.664 96.7221 300.431 96.5501 300.237 96.334L298.523 94.4281C297.936 93.7783 297.234 93.2615 296.456 92.9086C295.679 92.5557 294.844 92.3738 294 92.3738C293.155 92.3738 292.32 92.5557 291.543 92.9086C290.766 93.2615 290.063 93.7783 289.477 94.4281L287.762 96.334C287.568 96.5501 287.335 96.7221 287.077 96.8397C286.82 96.9573 286.542 97.0181 286.262 97.0184H275.25C271.785 97.0184 269 100.001 269 103.648V143.579C271.57 143.55 274.14 143.594 276.708 143.713L277.812 143.757C280.487 143.864 282.981 143.965 285.421 143.911C290.893 143.786 295.925 142.872 301.275 139.495C307.771 135.393 313.271 136.624 317.073 138.991C317.777 139.43 318.421 139.905 319 140.387V129.156H323.166V152.62C323.166 158.76 318.489 163.708 312.75 163.708H306.5V168.167H296.083V177.083H291.916V168.167H281.5V163.708H275.25C269.51 163.708 264.833 158.76 264.833 152.62V103.646C264.833 97.511 269.51 92.56 275.25 92.56H285.375L286.475 91.3384V91.3384ZM275.25 159.25C271.785 159.25 269 156.267 269 152.62V148.04C271.519 148.009 274.039 148.052 276.556 148.169L277.652 148.213C280.312 148.32 282.937 148.427 285.508 148.369C291.429 148.236 297.231 147.226 303.391 143.336C308.406 140.171 312.281 141.169 314.975 142.846C316.522 143.825 317.886 145.101 319 146.611V152.62C319 156.267 316.214 159.25 312.75 159.25H275.25Z" fill="#00003E"/>
<path fill-rule="evenodd" clip-rule="evenodd" d="M284.45 111.546C284.288 111.149 284.021 110.811 283.682 110.574C283.343 110.337 282.947 110.211 282.542 110.211C282.137 110.211 281.741 110.337 281.402 110.574C281.063 110.811 280.796 111.149 280.633 111.546L275.183 124.876C275.17 124.906 275.158 124.935 275.146 124.965L273.342 129.379C273.14 129.917 273.143 130.518 273.348 131.054C273.553 131.59 273.946 132.019 274.442 132.251C274.938 132.483 275.499 132.499 276.006 132.296C276.513 132.092 276.927 131.686 277.158 131.162L278.436 128.042H286.648L287.925 131.162C288.157 131.686 288.57 132.092 289.077 132.296C289.584 132.499 290.145 132.483 290.642 132.251C291.138 132.019 291.53 131.59 291.735 131.054C291.941 130.518 291.943 129.917 291.742 129.379L289.938 124.965C289.926 124.935 289.913 124.906 289.9 124.876L284.45 111.546V111.546ZM282.542 117.999L284.825 123.583H280.258L282.542 117.999ZM294 112.437C294 111.846 294.22 111.279 294.61 110.861C295.001 110.443 295.531 110.208 296.083 110.208H302.594C306.027 110.208 308.583 113.34 308.583 116.896C308.585 118.528 308.044 120.108 307.058 121.354C308.017 122.558 308.583 124.138 308.583 125.812C308.583 129.368 306.027 132.5 302.594 132.5H296.083C295.531 132.5 295.001 132.265 294.61 131.847C294.22 131.429 294 130.862 294 130.271V112.437ZM302.594 119.125C303.475 119.125 304.417 118.265 304.417 116.896C304.417 115.527 303.475 114.667 302.594 114.667H298.167V119.125H302.594ZM304.417 125.812C304.417 127.181 303.475 128.042 302.594 128.042H298.167V123.583H302.594C303.475 123.583 304.417 124.444 304.417 125.812Z" fill="#00003E"/>
<path d="M314.833 119.125C314.281 119.125 313.751 119.36 313.36 119.778C312.969 120.196 312.75 120.763 312.75 121.354C312.75 121.945 312.969 122.512 313.36 122.93C313.751 123.348 314.281 123.583 314.833 123.583H321.083C321.636 123.583 322.166 123.348 322.556 122.93C322.947 122.512 323.167 121.945 323.167 121.354C323.167 120.763 322.947 120.196 322.556 119.778C322.166 119.36 321.636 119.125 321.083 119.125H314.833Z" fill="#00003E"/>
<path fill-rule="evenodd" clip-rule="evenodd" d="M240 36H126V177H240V36ZM192.5 60.5516C191.868 60.5519 191.242 60.3962 190.659 60.0935C190.077 59.7909 189.549 59.3474 189.106 58.7891L186.42 55.3934C185.973 54.8333 185.441 54.3886 184.855 54.085C184.268 53.7815 183.638 53.6252 183.002 53.6252C182.366 53.6252 181.737 53.7815 181.15 54.085C180.563 54.3886 180.031 54.8333 179.585 55.3934L176.896 58.7891C176.454 59.3474 175.926 59.7909 175.343 60.0935C174.76 60.3962 174.134 60.5519 173.502 60.5516H159.252C156.592 60.5516 154.502 63.1836 154.502 66.3385V121.099C157.432 121.06 160.363 121.119 163.29 121.276L164.549 121.334C167.598 121.475 170.441 121.608 173.222 121.537C179.461 121.373 185.197 120.168 191.296 115.718C198.701 110.313 204.971 111.934 209.306 115.054C210.108 115.633 210.842 116.258 211.502 116.893V66.3356C211.502 63.1836 209.412 60.5487 206.752 60.5487H192.502L192.5 60.5516ZM159.25 147.625H168.75V153.5H180.625V165.25H185.375V153.5H197.25V147.625H206.75C211.999 147.625 216.25 142.405 216.25 135.963V66.3385C216.25 59.8995 211.999 54.6766 206.75 54.6766H192.5L189.812 51.2838C188.922 50.1654 187.862 49.2772 186.693 48.6708C185.523 48.0645 184.268 47.7522 183 47.7522C181.732 47.7522 180.477 48.0645 179.307 48.6708C178.138 49.2772 177.078 50.1654 176.188 51.2838L173.5 54.6766H159.25C154.001 54.6766 149.75 59.8966 149.75 66.3385V135.963C149.75 142.405 154.001 147.625 159.25 147.625ZM164 68.3125C163.37 68.3125 162.766 68.622 162.321 69.1729C161.875 69.7238 161.625 70.4709 161.625 71.25V106.5C161.625 107.279 161.875 108.026 162.321 108.577C162.766 109.128 163.37 109.438 164 109.438H175.875C177.805 109.438 179.689 108.711 181.276 107.354C182.864 105.997 184.08 104.075 184.762 101.842C185.444 99.6095 185.561 97.1729 185.096 94.8565C184.631 92.5401 183.607 90.4537 182.159 88.875C183.607 87.2963 184.631 85.2099 185.096 82.8935C185.561 80.5771 185.444 78.1405 184.762 75.9079C184.08 73.6753 182.864 71.7527 181.276 70.3959C179.689 69.039 177.805 68.3124 175.875 68.3125H164ZM180.625 80.0625C180.625 81.6206 180.125 83.115 179.234 84.2168C178.343 85.3185 177.135 85.9375 175.875 85.9375H166.375V74.1875H175.875C177.135 74.1875 178.343 74.8065 179.234 75.9082C180.125 77.01 180.625 78.5044 180.625 80.0625ZM175.875 91.8125H166.375V103.562H175.875C177.135 103.562 178.343 102.944 179.234 101.842C180.125 100.74 180.625 99.2456 180.625 97.6875C180.625 96.1294 180.125 94.635 179.234 93.5332C178.343 92.4315 177.135 91.8125 175.875 91.8125ZM198.438 85.9375H202C202.63 85.9375 203.234 86.247 203.679 86.7979C204.125 87.3488 204.375 88.0959 204.375 88.875C204.375 89.6541 204.125 90.4012 203.679 90.9521C203.234 91.503 202.63 91.8125 202 91.8125H198.438V96.2188C198.438 96.9978 198.187 97.745 197.742 98.2959C197.296 98.8468 196.692 99.1562 196.062 99.1562C195.433 99.1562 194.829 98.8468 194.383 98.2959C193.938 97.745 193.688 96.9978 193.688 96.2188V91.8125H190.125C189.495 91.8125 188.891 91.503 188.446 90.9521C188 90.4012 187.75 89.6541 187.75 88.875C187.75 88.0959 188 87.3488 188.446 86.7979C188.891 86.247 189.495 85.9375 190.125 85.9375H193.688V81.5312C193.688 80.7522 193.938 80.005 194.383 79.4541C194.829 78.9032 195.433 78.5938 196.062 78.5938C196.692 78.5938 197.296 78.9032 197.742 79.4541C198.187 80.005 198.438 80.7522 198.438 81.5312V85.9375Z" fill="#00003E"/>
<path d="M79.5247 91.3384C78.5495 90.2565 77.3806 89.3959 76.0877 88.8082C74.7948 88.2204 73.4044 87.9175 71.9997 87.9175C70.5949 87.9175 69.2046 88.2204 67.9117 88.8082C66.6188 89.3959 65.4498 90.2565 64.4747 91.3384L63.3747 92.56H53.2497C47.5101 92.56 42.833 97.5088 42.833 103.648V152.623C42.833 158.755 47.5101 163.708 53.2497 163.708H59.4997V168.167H69.9163V177.083H74.083V168.167H84.4997V163.708H90.7497C96.4893 163.708 101.166 158.76 101.166 152.62V130.271H96.9997V140.389C96.3868 139.879 95.743 139.413 95.0726 138.994C91.2705 136.626 85.7705 135.396 79.2747 139.497C73.9247 142.875 68.8934 143.789 63.4205 143.911C60.983 143.967 58.4872 143.867 55.8163 143.757L54.7101 143.713C52.1415 143.594 49.5705 143.55 46.9997 143.579V103.65C46.9997 100.003 49.7851 97.0206 53.2497 97.0206H64.2622C64.5424 97.0203 64.8196 96.9596 65.0773 96.842C65.3351 96.7244 65.568 96.5524 65.7622 96.3362L67.4768 94.4303C68.0632 93.7805 68.7658 93.2638 69.5429 92.9108C70.32 92.5579 71.1555 92.376 71.9997 92.376C72.8438 92.376 73.6794 92.5579 74.4564 92.9108C75.2335 93.2638 75.9362 93.7805 76.5226 94.4303L78.2372 96.3362C78.4313 96.5524 78.6643 96.7244 78.922 96.842C79.1797 96.9596 79.457 97.0203 79.7372 97.0206H91.4372C94.5205 97.0206 96.9997 99.6733 96.9997 102.919V112.438H101.166V102.917C101.166 97.1833 96.7976 92.56 91.4372 92.56H80.6247L79.5247 91.3384V91.3384Z" fill="#00003E"/>
<path fill-rule="evenodd" clip-rule="evenodd" d="M60.5409 110.208C60.9461 110.209 61.3424 110.335 61.6814 110.573C62.0203 110.81 62.2872 111.148 62.4493 111.546L67.8993 124.876C67.9124 124.906 67.9249 124.935 67.9368 124.965L69.7409 129.379C69.9423 129.917 69.94 130.518 69.7346 131.054C69.5292 131.59 69.1369 132.019 68.6407 132.251C68.1445 132.483 67.5834 132.499 67.0764 132.296C66.5693 132.092 66.1561 131.686 65.9243 131.163L64.6451 128.042H56.4326L55.1555 131.163C54.9237 131.686 54.5105 132.092 54.0034 132.296C53.4963 132.499 52.9353 132.483 52.4391 132.251C51.9429 132.019 51.5505 131.59 51.3451 131.054C51.1398 130.518 51.1375 129.917 51.3388 129.379L53.143 124.965L53.1472 124.954C53.1577 124.927 53.1688 124.901 53.1805 124.874L58.6305 111.544C58.793 111.146 59.0603 110.808 59.3997 110.571C59.739 110.334 60.1356 110.208 60.5409 110.208ZM62.8243 123.583L60.5409 117.999L58.2576 123.583H62.8243ZM74.0826 110.208C73.5301 110.208 73.0001 110.443 72.6094 110.861C72.2187 111.279 71.9993 111.846 71.9993 112.438V130.271C71.9993 130.862 72.2187 131.429 72.6094 131.847C73.0001 132.265 73.5301 132.5 74.0826 132.5H80.593C84.0263 132.5 86.5826 129.368 86.5826 125.813C86.5841 124.18 86.0436 122.6 85.0576 121.354C86.0436 120.108 86.5841 118.528 86.5826 116.896C86.5826 113.34 84.0263 110.208 80.593 110.208H74.0826ZM82.4159 116.896C82.4159 118.265 81.4743 119.125 80.593 119.125H76.1659V114.667H80.593C81.4743 114.667 82.4159 115.527 82.4159 116.896ZM82.4159 125.813C82.4159 124.444 81.4743 123.583 80.593 123.583H76.1659V128.042H80.593C81.4743 128.042 82.4159 127.181 82.4159 125.813Z" fill="#00003E"/>
<path d="M88.666 121.354C88.666 120.763 88.8855 120.196 89.2762 119.778C89.6669 119.36 90.1968 119.125 90.7493 119.125H92.8327V116.896C92.8327 116.305 93.0522 115.738 93.4429 115.32C93.8336 114.902 94.3635 114.667 94.916 114.667C95.4685 114.667 95.9985 114.902 96.3892 115.32C96.7799 115.738 96.9993 116.305 96.9993 116.896V119.125H99.0827C99.6352 119.125 100.165 119.36 100.556 119.778C100.947 120.196 101.166 120.763 101.166 121.354C101.166 121.945 100.947 122.512 100.556 122.93C100.165 123.348 99.6352 123.583 99.0827 123.583H96.9993V125.813C96.9993 126.404 96.7799 126.971 96.3892 127.389C95.9985 127.807 95.4685 128.042 94.916 128.042C94.3635 128.042 93.8336 127.807 93.4429 127.389C93.0522 126.971 92.8327 126.404 92.8327 125.813V123.583H90.7493C90.1968 123.583 89.6669 123.348 89.2762 122.93C88.8855 122.512 88.666 121.945 88.666 121.354V121.354Z" fill="#00003E"/>
</svg>
