<svg width="344" height="191" viewBox="0 0 344 191" fill="none" xmlns="http://www.w3.org/2000/svg">
<rect width="344" height="191" fill="#D60505"/>
<path d="M232.281 28.7031C231.576 28.7031 230.853 28.82 230.129 29.0872L123.18 67.7626H92.75C91.1172 67.7626 89.7812 68.9983 89.7812 70.5347V120.465C89.7812 122.002 91.1172 123.237 92.75 123.237H111.602C110.915 125.175 110.562 127.229 110.562 129.316C110.562 140.321 120.545 149.271 132.828 149.271C143.107 149.271 151.772 142.993 154.333 134.509L230.147 161.929C230.871 162.18 231.595 162.314 232.3 162.314C235.436 162.314 238.237 159.942 238.237 156.769V34.2473C238.219 31.0744 235.436 28.7031 232.281 28.7031ZM132.828 137.298C127.911 137.298 123.922 133.725 123.922 129.316C123.922 127.446 124.646 125.659 125.963 124.239L141.716 129.934C141.345 134.042 137.504 137.298 132.828 137.298Z" fill="black"/>
</svg>
