<svg width="40" height="40" viewBox="0 0 40 40" fill="none" xmlns="http://www.w3.org/2000/svg">
<path d="M32.9999 22.6667C33.0833 22.0833 33.1666 21.5 33.1666 20.8333C33.1666 20.1667 33.0833 19.5833 32.9999 19L36.7499 16.3333C37.0833 16.0833 37.2499 15.5833 36.9999 15.1667L33.3333 9.00001C33.0833 8.58334 32.6666 8.41667 32.2499 8.66667L28.0833 10.5833C27.0833 9.83334 26.0833 9.25001 24.9166 8.75001L24.4999 4.16667C24.4166 3.75001 24.0833 3.41667 23.6666 3.41667H16.4999C16.0833 3.41667 15.6666 3.75001 15.6666 4.16667L15.2499 8.75001C14.0833 9.25001 12.9999 9.83334 12.0833 10.5833L7.91659 8.66667C7.49993 8.5 6.99993 8.66667 6.83326 9.00001L3.24993 15.1667C2.99993 15.5833 3.16659 16.0833 3.49993 16.3333L7.24993 19C7.16659 19.5833 7.08326 20.1667 7.08326 20.8333C7.08326 21.5 7.16659 22.0833 7.24993 22.6667L3.33326 25.3333C2.99993 25.5833 2.83326 26.0833 3.08326 26.5L6.66659 32.6667C6.91659 33.0833 7.33326 33.25 7.74993 33L11.9166 31.0833C12.9166 31.8333 13.9166 32.4167 15.0833 32.9167L15.4999 37.5C15.5833 37.9167 15.9166 38.25 16.3333 38.25H23.4999C23.9166 38.25 24.3333 37.9167 24.3333 37.5L24.7499 32.9167C25.9166 32.4167 26.9999 31.8333 27.9166 31.0833L32.0833 33C32.4999 33.1667 32.9999 33 33.1666 32.6667L36.7499 26.5C36.9999 26.0833 36.8333 25.5833 36.4999 25.3333L32.9999 22.6667ZM19.9999 29.1667C15.4166 29.1667 11.6666 25.4167 11.6666 20.8333C11.6666 16.25 15.4166 12.5 19.9999 12.5C24.5833 12.5 28.3333 16.25 28.3333 20.8333C28.3333 25.4167 24.5833 29.1667 19.9999 29.1667Z" fill="#607D8B"/>
<path d="M20 10.8333C14.5 10.8333 10 15.3333 10 20.8333C10 26.3333 14.5 30.8333 20 30.8333C25.5 30.8333 30 26.3333 30 20.8333C30 15.3333 25.5 10.8333 20 10.8333ZM20 25C17.6667 25 15.8333 23.1667 15.8333 20.8333C15.8333 18.5 17.6667 16.6667 20 16.6667C22.3333 16.6667 24.1667 18.5 24.1667 20.8333C24.1667 23.1667 22.3333 25 20 25Z" fill="#455A64"/>
</svg>
