<svg width="40" height="40" viewBox="0 0 40 40" fill="none" xmlns="http://www.w3.org/2000/svg">
<path d="M19.1295 1.94142e-05C14.9781 1.94142e-05 10.9967 1.51716 8.06124 4.21768C5.12576 6.9182 3.47662 10.5809 3.47662 14.4V22.0832L0.123429 29.808C0.0184049 30.0506 -0.0204798 30.3132 0.0101682 30.5728C0.0408162 30.8324 0.140065 31.0811 0.299254 31.2973C0.458442 31.5135 0.672731 31.6906 0.923417 31.8131C1.1741 31.9356 1.45357 31.9997 1.73741 32H36.5216C36.8054 31.9997 37.0849 31.9356 37.3356 31.8131C37.5863 31.6906 37.8006 31.5135 37.9597 31.2973C38.1189 31.0811 38.2182 30.8324 38.2488 30.5728C38.2795 30.3132 38.2406 30.0506 38.1356 29.808L34.7824 22.08V16C33.1082 16.0002 31.4696 15.5557 30.0633 14.7201C28.657 13.8844 27.5428 12.6931 26.8545 11.2891C26.1662 9.88517 25.933 8.32827 26.183 6.80538C26.433 5.2825 27.1555 3.85837 28.2638 2.70402C25.604 0.941263 22.4076 -0.00494229 19.1295 1.94142e-05ZM19.1295 40C17.5869 40.0004 16.0879 39.529 14.8683 38.6601C13.6486 37.7912 12.7775 36.5741 12.3918 35.2H25.8672C25.4815 36.5741 24.6104 37.7912 23.3907 38.6601C22.1711 39.529 20.6721 40.0004 19.1295 40ZM34.7824 12.8C36.1662 12.8 37.4933 12.2943 38.4718 11.3941C39.4503 10.494 40 9.27305 40 8.00002C40 6.72698 39.4503 5.50608 38.4718 4.60591C37.4933 3.70573 36.1662 3.20002 34.7824 3.20002C33.3986 3.20002 32.0714 3.70573 31.093 4.60591C30.1145 5.50608 29.5647 6.72698 29.5647 8.00002C29.5647 9.27305 30.1145 10.494 31.093 11.3941C32.0714 12.2943 33.3986 12.8 34.7824 12.8Z" fill="#00003E"/>
</svg>
