<svg width="344" height="191" viewBox="0 0 344 191" fill="none" xmlns="http://www.w3.org/2000/svg">
<rect width="344" height="191" fill="#D90606"/>
<path d="M104 149H180.96C185.577 149.002 190.139 148.171 194.333 146.563C198.527 144.955 202.254 142.609 205.256 139.687L246.072 100.007C246.927 99.1772 247.523 98.1853 247.81 97.1184C248.096 96.0514 248.063 94.9422 247.714 93.8884C247.364 92.8346 246.709 91.8685 245.807 91.0753C244.904 90.2822 243.78 89.6862 242.536 89.34L226.792 84.9667C222.987 83.9359 218.935 83.7027 214.996 84.2876C211.057 84.8725 207.352 86.2575 204.208 88.32L178.728 105.3L173.792 97.0667C171.148 92.6285 167.065 88.8961 162.006 86.2922C156.947 83.6882 151.114 82.3169 145.168 82.3333H104C95.176 82.3333 88 88.3133 88 95.6667V135.667C88 143.02 95.176 149 104 149ZM104 95.6667H145.168C151.272 95.6667 156.752 98.4867 159.48 103.033L163.056 109H128V122.333H176.112C177.343 122.32 178.553 122.069 179.648 121.6L179.672 121.593L179.704 121.58H179.728L179.744 121.573H179.776L179.784 121.567C179.872 121.587 179.808 121.56 179.808 121.56C179.904 121.56 179.824 121.553 179.824 121.553H179.832L179.848 121.547L179.872 121.54L179.888 121.533L179.904 121.527L179.928 121.52L179.944 121.513L179.96 121.507L179.984 121.493L180 121.487L180.016 121.48L180.04 121.473L180.056 121.467H180.064L180.08 121.46H180.088L180.104 121.453L180.12 121.447C180.208 121.44 180.144 121.44 180.144 121.44L180.16 121.433C180.468 121.278 180.762 121.104 181.04 120.913L214.208 98.8C216.296 97.4133 219.192 96.98 221.728 97.6867L226.184 98.9267L193.12 131.08C191.599 132.519 189.728 133.672 187.632 134.463C185.535 135.254 183.261 135.664 180.96 135.667H104V95.6667ZM182.088 24.5067C178.4 27.88 160 45.38 160 59C160 71.8667 172.56 82.3333 188 82.3333C203.44 82.3333 216 71.8667 216 59C216 45.38 197.6 27.88 193.912 24.5067C190.88 21.7333 185.12 21.7333 182.088 24.5067ZM200 59C200 64.5133 194.616 69 188 69C181.384 69 176 64.5133 176 59C176 54.28 181.904 46.1067 188 39.44C194.096 46.1067 200 54.28 200 59Z" fill="#00003E"/>
</svg>
