<svg width="98" height="27" viewBox="0 0 98 27" fill="none" xmlns="http://www.w3.org/2000/svg">
<path d="M97.643 9.93708C96.808 10.3071 95.911 10.5571 94.968 10.6701C95.941 10.0879 96.669 9.17154 97.016 8.09208C96.1019 8.63507 95.1014 9.01727 94.058 9.22208C93.3564 8.47294 92.4271 7.9764 91.4143 7.80955C90.4016 7.6427 89.3621 7.81487 88.4572 8.29933C87.5524 8.78379 86.8328 9.55344 86.4102 10.4888C85.9875 11.4241 85.8855 12.4728 86.12 13.4721C84.2677 13.3791 82.4556 12.8976 80.8014 12.059C79.1472 11.2203 77.6879 10.0432 76.518 8.60408C76.118 9.29408 75.888 10.0941 75.888 10.9461C75.8876 11.7131 76.0764 12.4683 76.4379 13.1448C76.7993 13.8213 77.3222 14.3981 77.96 14.8241C77.2203 14.8005 76.4969 14.6007 75.85 14.2411V14.3011C75.8499 15.3768 76.222 16.4195 76.9032 17.2521C77.5843 18.0847 78.5326 18.656 79.587 18.8691C78.9008 19.0548 78.1813 19.0821 77.483 18.9491C77.7805 19.8747 78.36 20.6841 79.1404 21.264C79.9208 21.8439 80.8629 22.1653 81.835 22.1831C80.1848 23.4785 78.1469 24.1812 76.049 24.1781C75.6774 24.1782 75.3061 24.1565 74.937 24.1131C77.0665 25.4823 79.5454 26.2089 82.077 26.2061C90.647 26.2061 95.332 19.1081 95.332 12.9521C95.332 12.7521 95.327 12.5501 95.318 12.3501C96.2293 11.6911 97.0159 10.875 97.641 9.94008L97.643 9.93708Z" fill="white"/>
<path d="M36.7512 22.75H31.3091V7.56112H36.7512V22.75ZM34.0269 5.48925C32.2869 5.48925 30.875 4.23962 30.875 2.73163C30.875 2.00715 31.2071 1.31235 31.7982 0.800074C32.3893 0.287795 33.1909 0 34.0269 0C34.8628 0 35.6645 0.287795 36.2556 0.800074C36.8467 1.31235 37.1788 2.00715 37.1788 2.73163C37.1788 4.23962 35.7669 5.48925 34.0269 5.48925ZM57.1194 22.75H51.6894V15.3562C51.6894 13.5939 51.6481 11.3344 48.86 11.3344C46.0306 11.3344 45.5966 13.2486 45.5966 15.2295V22.75H40.16V7.56112H45.3791V9.633H45.455C46.1816 8.43944 47.9563 7.18006 50.6038 7.18006C56.1116 7.18006 57.1241 10.3236 57.1241 14.4064V22.75H57.1194Z" fill="white"/>
<path d="M13.6133 14.25L14.3687 10.6305H9.64538V8.28164C9.64538 7.29141 10.3052 6.32617 12.4206 6.32617H14.5679V3.24453C14.5679 3.24453 12.6193 3 10.7562 3C6.86641 3 4.32384 4.73359 4.32384 7.87187V10.6305H0V14.25H4.32384V23H9.64538V14.25H13.6133Z" fill="white"/>
</svg>
