<svg width="95" height="76" viewBox="0 0 95 76" fill="none" xmlns="http://www.w3.org/2000/svg">
<rect x="2.5" y="2.5" width="90" height="71" fill="white" stroke="#D60505" stroke-width="5"/>
<path d="M19 31.2637H23.5L25 22L29 40.5273L31 26.6318L32.5 31.2637H37" stroke="#D60505" stroke-width="2" stroke-linecap="round" stroke-linejoin="round"/>
<path d="M1 31.4762H5.5L7 24L11 38.9524L13 27.7381L14.5 31.4762H19" stroke="#D60505" stroke-width="2" stroke-linecap="round" stroke-linejoin="round"/>
<path d="M51 31.2637H55.5L57 22L61 40.5273L63 26.6318L64.5 31.2637H69" stroke="#D60505" stroke-width="2" stroke-linecap="round" stroke-linejoin="round"/>
<path d="M69 31.4762H73.5L75 24L79 38.9524L81 27.7381L82.5 31.4762H87" stroke="#D60505" stroke-width="2" stroke-linecap="round" stroke-linejoin="round"/>
<path d="M43.4999 8L54.045 27.25H32.9548L43.4999 8Z" fill="#D60505"/>
<path d="M55 31.8333C55 36.8959 49.4777 41 43.5 41C37.5223 41 32 36.8959 32 31.8333C32 26.7707 37.5223 16.5555 43.5 16.5555C49.4777 16.5555 55 26.7707 55 31.8333Z" fill="#D60505"/>
<path d="M9.8 56.14C9.51667 56.14 9.225 56.1117 8.925 56.055C8.625 56.0017 8.34667 55.9367 8.09 55.86C7.83333 55.78 7.63 55.7033 7.48 55.63L7.63 54.27C7.86333 54.3833 8.10667 54.4883 8.36 54.585C8.61333 54.6817 8.87333 54.76 9.14 54.82C9.40667 54.88 9.67667 54.91 9.95 54.91C10.29 54.91 10.5633 54.8433 10.77 54.71C10.9767 54.5767 11.08 54.3733 11.08 54.1C11.08 53.89 11.0217 53.7217 10.905 53.595C10.7883 53.465 10.61 53.35 10.37 53.25C10.13 53.1467 9.82333 53.03 9.45 52.9C9.07667 52.77 8.74167 52.6233 8.445 52.46C8.14833 52.2933 7.91333 52.0833 7.74 51.83C7.56667 51.5767 7.48 51.2533 7.48 50.86C7.48 50.4733 7.575 50.13 7.765 49.83C7.955 49.5267 8.23833 49.29 8.615 49.12C8.995 48.9467 9.46667 48.86 10.03 48.86C10.4567 48.86 10.8633 48.9083 11.25 49.005C11.6367 49.0983 11.9667 49.2 12.24 49.31L12.11 50.62C11.7167 50.4433 11.3467 50.31 11 50.22C10.6567 50.1267 10.3067 50.08 9.95 50.08C9.57667 50.08 9.28833 50.1417 9.085 50.265C8.88167 50.3883 8.78 50.5733 8.78 50.82C8.78 51.0167 8.83667 51.175 8.95 51.295C9.06333 51.415 9.225 51.5183 9.435 51.605C9.645 51.6883 9.89667 51.7767 10.19 51.87C10.6967 52.03 11.1217 52.2067 11.465 52.4C11.8117 52.59 12.0717 52.8217 12.245 53.095C12.4217 53.365 12.51 53.7 12.51 54.1C12.51 54.3 12.4783 54.5183 12.415 54.755C12.3517 54.9883 12.2267 55.21 12.04 55.42C11.8533 55.63 11.58 55.8033 11.22 55.94C10.8633 56.0733 10.39 56.14 9.8 56.14ZM16.6008 56.14C15.9341 56.14 15.3408 55.99 14.8208 55.69C14.3008 55.3867 13.8924 54.9633 13.5958 54.42C13.2991 53.8733 13.1508 53.2333 13.1508 52.5C13.1508 51.7667 13.2991 51.1283 13.5958 50.585C13.8924 50.0383 14.3008 49.615 14.8208 49.315C15.3408 49.0117 15.9341 48.86 16.6008 48.86C17.2674 48.86 17.8608 49.0117 18.3808 49.315C18.9008 49.615 19.3091 50.0383 19.6058 50.585C19.9024 51.1283 20.0508 51.7667 20.0508 52.5C20.0508 53.2333 19.9024 53.8733 19.6058 54.42C19.3091 54.9633 18.9008 55.3867 18.3808 55.69C17.8608 55.99 17.2674 56.14 16.6008 56.14ZM16.6008 54.9C17.0674 54.9 17.4574 54.7967 17.7708 54.59C18.0841 54.3833 18.3191 54.1 18.4758 53.74C18.6324 53.3767 18.7108 52.9633 18.7108 52.5C18.7108 52.0367 18.6324 51.625 18.4758 51.265C18.3191 50.9017 18.0841 50.6167 17.7708 50.41C17.4574 50.2033 17.0674 50.1 16.6008 50.1C16.1341 50.1 15.7441 50.2033 15.4308 50.41C15.1174 50.6167 14.8824 50.9017 14.7258 51.265C14.5691 51.625 14.4908 52.0367 14.4908 52.5C14.4908 52.9633 14.5691 53.3767 14.7258 53.74C14.8824 54.1 15.1174 54.3833 15.4308 54.59C15.7441 54.7967 16.1341 54.9 16.6008 54.9ZM24.3384 56.14C23.6284 56.14 23.0034 55.99 22.4634 55.69C21.9234 55.3867 21.5018 54.9633 21.1984 54.42C20.8984 53.8733 20.7484 53.2333 20.7484 52.5C20.7484 51.7667 20.9034 51.1283 21.2134 50.585C21.5268 50.0383 21.9568 49.615 22.5034 49.315C23.0501 49.0117 23.6751 48.86 24.3784 48.86C24.7484 48.86 25.0868 48.9 25.3934 48.98C25.7001 49.0567 25.9651 49.1533 26.1884 49.27L26.0484 50.49C25.7951 50.3733 25.5334 50.2783 25.2634 50.205C24.9968 50.1283 24.6984 50.09 24.3684 50.09C23.8784 50.09 23.4684 50.1933 23.1384 50.4C22.8118 50.6067 22.5651 50.8917 22.3984 51.255C22.2318 51.6183 22.1484 52.0333 22.1484 52.5C22.1484 52.9667 22.2301 53.3817 22.3934 53.745C22.5568 54.1083 22.8001 54.3933 23.1234 54.6C23.4501 54.8067 23.8551 54.91 24.3384 54.91C24.6751 54.91 24.9768 54.8733 25.2434 54.8C25.5101 54.7267 25.7784 54.63 26.0484 54.51L26.1884 55.73C25.9251 55.8533 25.6351 55.9517 25.3184 56.025C25.0051 56.1017 24.6784 56.14 24.3384 56.14ZM27.2622 56V49H28.5422V56H27.2622ZM33.9045 54.34H30.9745V53.22H33.9045V54.34ZM32.2745 50.25H32.6045L30.5845 56H29.3445L31.8345 49H33.0445L35.5345 56H34.2945L32.2745 50.25ZM36.3345 56V49H37.6145V54.86H40.4945V56H36.3345ZM43.5805 56V49H46.2005C46.8672 49 47.4605 49.14 47.9805 49.42C48.5005 49.6967 48.9089 50.0967 49.2055 50.62C49.5022 51.14 49.6505 51.7667 49.6505 52.5C49.6505 53.2333 49.5022 53.8617 49.2055 54.385C48.9089 54.905 48.5005 55.305 47.9805 55.585C47.4605 55.8617 46.8672 56 46.2005 56H43.5805ZM44.8605 54.86H46.2005C46.6539 54.86 47.0322 54.765 47.3355 54.575C47.6389 54.385 47.8672 54.1133 48.0205 53.76C48.1739 53.4067 48.2505 52.9867 48.2505 52.5C48.2505 52.0133 48.1739 51.5933 48.0205 51.24C47.8672 50.8867 47.6389 50.615 47.3355 50.425C47.0322 50.235 46.6539 50.14 46.2005 50.14H44.8605V54.86ZM53.8078 56.14C53.1411 56.14 52.5478 55.99 52.0278 55.69C51.5078 55.3867 51.0995 54.9633 50.8028 54.42C50.5061 53.8733 50.3578 53.2333 50.3578 52.5C50.3578 51.7667 50.5061 51.1283 50.8028 50.585C51.0995 50.0383 51.5078 49.615 52.0278 49.315C52.5478 49.0117 53.1411 48.86 53.8078 48.86C54.4745 48.86 55.0678 49.0117 55.5878 49.315C56.1078 49.615 56.5161 50.0383 56.8128 50.585C57.1095 51.1283 57.2578 51.7667 57.2578 52.5C57.2578 53.2333 57.1095 53.8733 56.8128 54.42C56.5161 54.9633 56.1078 55.3867 55.5878 55.69C55.0678 55.99 54.4745 56.14 53.8078 56.14ZM53.8078 54.9C54.2745 54.9 54.6645 54.7967 54.9778 54.59C55.2911 54.3833 55.5261 54.1 55.6828 53.74C55.8395 53.3767 55.9178 52.9633 55.9178 52.5C55.9178 52.0367 55.8395 51.625 55.6828 51.265C55.5261 50.9017 55.2911 50.6167 54.9778 50.41C54.6645 50.2033 54.2745 50.1 53.8078 50.1C53.3411 50.1 52.9511 50.2033 52.6378 50.41C52.3245 50.6167 52.0895 50.9017 51.9328 51.265C51.7761 51.625 51.6978 52.0367 51.6978 52.5C51.6978 52.9633 51.7761 53.3767 51.9328 53.74C52.0895 54.1 52.3245 54.3833 52.6378 54.59C52.9511 54.7967 53.3411 54.9 53.8078 54.9ZM58.3755 56V49H59.6355L62.6255 53.52V49H63.9055V56H62.8555L59.6555 51.2V56H58.3755ZM68.4758 56.14C67.8091 56.14 67.2158 55.99 66.6958 55.69C66.1758 55.3867 65.7674 54.9633 65.4708 54.42C65.1741 53.8733 65.0258 53.2333 65.0258 52.5C65.0258 51.7667 65.1741 51.1283 65.4708 50.585C65.7674 50.0383 66.1758 49.615 66.6958 49.315C67.2158 49.0117 67.8091 48.86 68.4758 48.86C69.1424 48.86 69.7358 49.0117 70.2558 49.315C70.7758 49.615 71.1841 50.0383 71.4808 50.585C71.7774 51.1283 71.9258 51.7667 71.9258 52.5C71.9258 53.2333 71.7774 53.8733 71.4808 54.42C71.1841 54.9633 70.7758 55.3867 70.2558 55.69C69.7358 55.99 69.1424 56.14 68.4758 56.14ZM68.4758 54.9C68.9424 54.9 69.3324 54.7967 69.6458 54.59C69.9591 54.3833 70.1941 54.1 70.3508 53.74C70.5074 53.3767 70.5858 52.9633 70.5858 52.5C70.5858 52.0367 70.5074 51.625 70.3508 51.265C70.1941 50.9017 69.9591 50.6167 69.6458 50.41C69.3324 50.2033 68.9424 50.1 68.4758 50.1C68.0091 50.1 67.6191 50.2033 67.3058 50.41C66.9924 50.6167 66.7574 50.9017 66.6008 51.265C66.4441 51.625 66.3658 52.0367 66.3658 52.5C66.3658 52.9633 66.4441 53.3767 66.6008 53.74C66.7574 54.1 66.9924 54.3833 67.3058 54.59C67.6191 54.7967 68.0091 54.9 68.4758 54.9ZM73.0434 56V49H75.6034C76.0868 49 76.5084 49.0767 76.8684 49.23C77.2318 49.3833 77.5134 49.6167 77.7134 49.93C77.9134 50.2433 78.0134 50.64 78.0134 51.12C78.0134 51.6333 77.9034 52.0417 77.6834 52.345C77.4668 52.645 77.1801 52.8833 76.8234 53.06L78.4034 56H76.9734L75.6234 53.4C75.6134 53.4 75.6051 53.4 75.5984 53.4C75.5918 53.4 75.5834 53.4 75.5734 53.4H74.3234V56H73.0434ZM74.3234 52.33H75.2634C75.7901 52.33 76.1568 52.2233 76.3634 52.01C76.5701 51.7933 76.6734 51.52 76.6734 51.19C76.6734 50.84 76.5718 50.5667 76.3684 50.37C76.1651 50.17 75.8134 50.07 75.3134 50.07H74.3234V52.33ZM81.3332 56.14C81.0499 56.14 80.7582 56.1117 80.4582 56.055C80.1582 56.0017 79.8799 55.9367 79.6232 55.86C79.3665 55.78 79.1632 55.7033 79.0132 55.63L79.1632 54.27C79.3965 54.3833 79.6399 54.4883 79.8932 54.585C80.1465 54.6817 80.4065 54.76 80.6732 54.82C80.9399 54.88 81.2099 54.91 81.4832 54.91C81.8232 54.91 82.0965 54.8433 82.3032 54.71C82.5099 54.5767 82.6132 54.3733 82.6132 54.1C82.6132 53.89 82.5549 53.7217 82.4382 53.595C82.3215 53.465 82.1432 53.35 81.9032 53.25C81.6632 53.1467 81.3565 53.03 80.9832 52.9C80.6099 52.77 80.2749 52.6233 79.9782 52.46C79.6815 52.2933 79.4465 52.0833 79.2732 51.83C79.0999 51.5767 79.0132 51.2533 79.0132 50.86C79.0132 50.4733 79.1082 50.13 79.2982 49.83C79.4882 49.5267 79.7715 49.29 80.1482 49.12C80.5282 48.9467 80.9999 48.86 81.5632 48.86C81.9899 48.86 82.3965 48.9083 82.7832 49.005C83.1699 49.0983 83.4999 49.2 83.7732 49.31L83.6432 50.62C83.2499 50.4433 82.8799 50.31 82.5332 50.22C82.1899 50.1267 81.8399 50.08 81.4832 50.08C81.1099 50.08 80.8215 50.1417 80.6182 50.265C80.4149 50.3883 80.3132 50.5733 80.3132 50.82C80.3132 51.0167 80.3699 51.175 80.4832 51.295C80.5965 51.415 80.7582 51.5183 80.9682 51.605C81.1782 51.6883 81.4299 51.7767 81.7232 51.87C82.2299 52.03 82.6549 52.2067 82.9982 52.4C83.3449 52.59 83.6049 52.8217 83.7782 53.095C83.9549 53.365 84.0432 53.7 84.0432 54.1C84.0432 54.3 84.0115 54.5183 83.9482 54.755C83.8849 54.9883 83.7599 55.21 83.5732 55.42C83.3865 55.63 83.1132 55.8033 82.7532 55.94C82.3965 56.0733 81.9232 56.14 81.3332 56.14Z" fill="black"/>
</svg>
