<svg width="60" height="60" viewBox="0 0 60 60" fill="none" xmlns="http://www.w3.org/2000/svg">
<circle cx="30" cy="30" r="30" fill="#00003E"/>
<path d="M28.2 44.56C27.0667 44.56 25.9 44.4467 24.7 44.22C23.5 44.0067 22.3867 43.7467 21.36 43.44C20.3333 43.12 19.52 42.8133 18.92 42.52L19.52 37.08C20.4533 37.5333 21.4267 37.9533 22.44 38.34C23.4533 38.7267 24.4933 39.04 25.56 39.28C26.6267 39.52 27.7067 39.64 28.8 39.64C30.16 39.64 31.2533 39.3733 32.08 38.84C32.9067 38.3067 33.32 37.4933 33.32 36.4C33.32 35.56 33.0867 34.8867 32.62 34.38C32.1533 33.86 31.44 33.4 30.48 33C29.52 32.5867 28.2933 32.12 26.8 31.6C25.3067 31.08 23.9667 30.4933 22.78 29.84C21.5933 29.1733 20.6533 28.3333 19.96 27.32C19.2667 26.3067 18.92 25.0133 18.92 23.44C18.92 21.8933 19.3 20.52 20.06 19.32C20.82 18.1067 21.9533 17.16 23.46 16.48C24.98 15.7867 26.8667 15.44 29.12 15.44C30.8267 15.44 32.4533 15.6333 34 16.02C35.5467 16.3933 36.8667 16.8 37.96 17.24L37.44 22.48C35.8667 21.7733 34.3867 21.24 33 20.88C31.6267 20.5067 30.2267 20.32 28.8 20.32C27.3067 20.32 26.1533 20.5667 25.34 21.06C24.5267 21.5533 24.12 22.2933 24.12 23.28C24.12 24.0667 24.3467 24.7 24.8 25.18C25.2533 25.66 25.9 26.0733 26.74 26.42C27.58 26.7533 28.5867 27.1067 29.76 27.48C31.7867 28.12 33.4867 28.8267 34.86 29.6C36.2467 30.36 37.2867 31.2867 37.98 32.38C38.6867 33.46 39.04 34.8 39.04 36.4C39.04 37.2 38.9133 38.0733 38.66 39.02C38.4067 39.9533 37.9067 40.84 37.16 41.68C36.4133 42.52 35.32 43.2133 33.88 43.76C32.4533 44.2933 30.56 44.56 28.2 44.56Z" fill="white"/>
</svg>
